<?xml version="1.0" standalone="no"?>
<!DOCTYPE svg PUBLIC "-//W3C//DTD SVG 20010904//EN"
 "http://www.w3.org/TR/2001/REC-SVG-20010904/DTD/svg10.dtd">
<svg version="1.0" xmlns="http://www.w3.org/2000/svg"
 width="100.000000pt" height="70.200000pt" viewBox="0 0 1024.000000 1024.000000"
 preserveAspectRatio="xMidYMid meet">

<g transform="translate(0.000000,1024.000000) scale(0.100000,-0.100000)"
fill="#000000" stroke="none">
<path d="M4825 9230 c-619 -68 -1183 -253 -1685 -553 -578 -346 -1055 -837
-1405 -1447 -96 -167 -131 -237 -199 -396 -129 -304 -222 -632 -275 -965 -43
-266 -44 -310 -48 -1355 l-4 -1011 -73 -32 c-79 -35 -143 -90 -173 -149 -17
-35 -18 -88 -18 -1014 l0 -976 30 -44 c17 -23 51 -54 75 -68 l45 -25 4005 -3
c4432 -2 4069 -8 4142 63 73 71 69 11 66 1070 l-3 950 -25 48 c-32 63 -75 100
-166 144 -56 27 -74 41 -75 57 -1 11 -3 451 -4 976 -2 644 -6 999 -14 1090
-76 853 -405 1636 -960 2285 -132 155 -383 400 -523 513 -421 335 -936 591
-1468 728 -160 41 -343 78 -495 100 -128 19 -623 28 -750 14z m513 -236 c202
-41 409 -176 504 -329 25 -39 32 -45 63 -45 19 0 52 7 72 15 115 45 267 57
382 30 221 -52 409 -253 442 -473 30 -201 -76 -399 -258 -485 -52 -24 -76 -29
-141 -30 -78 0 -80 0 -148 45 -92 61 -228 128 -258 128 -24 0 -66 -41 -66 -64
0 -21 58 -73 136 -121 l74 -47 -2 -381 -3 -382 -977 -3 -978 -2 0 389 0 390
58 35 c32 19 70 46 85 60 46 43 31 102 -30 120 -17 6 -49 -8 -130 -55 -60 -34
-127 -73 -151 -87 -28 -16 -65 -26 -105 -29 -94 -7 -165 23 -247 106 -98 98
-150 218 -150 343 0 191 145 407 334 498 146 70 285 76 462 19 50 -16 100 -29
112 -29 14 0 31 17 56 59 46 75 154 177 245 231 71 42 188 85 271 100 80 14
267 11 348 -6z m-950 -150 l-46 -47 -66 18 c-37 10 -64 20 -61 23 5 6 184 50
205 51 8 1 -6 -20 -32 -45z m1605 12 l38 -11 -35 -19 c-41 -22 -56 -18 -85 23
l-22 31 33 -7 c18 -3 50 -11 71 -17z m-2538 -337 c-34 -41 -78 -130 -99 -199
-22 -71 -31 -239 -18 -310 6 -30 8 -57 6 -60 -8 -7 -119 -7 -428 -1 l-278 6
42 34 c23 18 44 30 48 26 3 -3 0 -10 -8 -15 -12 -8 -11 -10 5 -10 11 1 29 8
40 16 19 15 19 16 2 28 -16 13 -13 18 40 65 32 29 69 55 83 58 14 3 51 32 84
65 32 32 109 92 170 132 114 76 288 176 306 176 6 0 10 5 10 10 0 6 5 10 11
10 6 0 -1 -14 -16 -31z m3539 -89 c93 -61 106 -73 95 -86 -10 -13 -10 -17 2
-25 19 -12 33 -11 46 2 15 15 236 -154 433 -330 l45 -40 -328 -3 c-324 -3
-328 -3 -322 17 4 11 9 72 12 135 5 99 2 128 -16 195 -12 44 -33 100 -47 124
-13 24 -21 48 -17 54 3 5 1 7 -4 4 -6 -4 -13 0 -17 8 -9 25 6 18 118 -55z
m-3893 -611 c18 -9 19 -25 19 -264 l0 -255 -255 0 c-221 0 -255 2 -263 16 -5
9 -7 97 -4 195 3 127 1 184 -7 192 -12 12 -15 95 -3 114 4 6 25 14 47 16 67 8
446 -3 466 -14z m284 15 c9 -4 25 -25 37 -48 28 -55 68 -105 139 -173 33 -31
59 -62 59 -70 0 -7 11 -13 24 -13 13 0 48 -11 78 -25 29 -14 68 -28 86 -31
l32 -6 0 -84 0 -84 -282 2 -283 3 -3 230 c-1 153 1 239 9 257 14 35 66 56 104
42z m4076 -3 c29 0 38 -5 43 -23 3 -13 6 -127 6 -254 0 -185 -3 -234 -14 -243
-9 -8 -89 -11 -264 -11 -248 1 -250 1 -256 23 -3 12 -6 124 -6 248 0 165 3
230 13 242 14 20 92 25 302 21 77 -1 156 -3 176 -3z m272 -3 c9 -7 40 -43 69
-79 29 -36 85 -104 124 -150 40 -46 104 -131 143 -189 l72 -105 -257 -3 c-186
-2 -260 1 -271 9 -12 10 -14 50 -11 225 2 117 0 210 -4 207 -10 -6 -10 58 0
73 14 23 110 30 135 12z m-5247 -515 c-4 -10 -50 -13 -191 -13 -102 0 -185 2
-185 5 0 14 207 287 286 376 l89 102 3 -229 c1 -126 0 -234 -2 -241z m4394
222 l0 -235 -285 0 -285 0 0 70 c0 61 2 70 18 70 10 0 22 4 28 9 5 5 44 16 88
24 162 33 343 150 412 267 10 16 20 30 21 30 2 0 3 -106 3 -235z m-2880 -150
c0 -84 0 -85 -25 -85 -25 0 -25 1 -25 79 0 81 1 83 43 90 4 0 7 -37 7 -84z
m-1947 -201 c3 -4 0 -19 -8 -35 -20 -38 -19 -65 10 -219 14 -73 25 -134 25
-136 0 -1 -24 -10 -53 -18 -68 -20 -116 -52 -146 -99 -22 -34 -29 -37 -69 -37
-57 0 -59 -8 37 205 40 89 182 345 191 345 4 0 9 -3 13 -6z m711 -2 c2 -4 -13
-27 -35 -51 -49 -55 -86 -129 -101 -202 l-11 -56 -81 -6 c-44 -4 -81 -6 -82
-4 -1 1 -10 56 -19 122 -10 66 -26 137 -36 157 -14 27 -16 38 -6 41 20 9 365
8 371 -1z m5161 -15 l40 -22 0 -255 0 -254 -22 1 c-13 0 -99 1 -193 2 l-170 1
0 134 c0 192 -36 294 -133 375 l-30 26 24 6 c13 4 119 7 234 7 197 0 212 -1
250 -21z m297 6 c44 -51 258 -484 258 -522 0 -8 -53 -11 -174 -11 l-173 0 -7
61 c-3 34 -6 155 -6 270 0 207 0 208 23 212 46 9 64 6 79 -10z m-4214 -90 l-3
-78 -490 -5 c-472 -5 -491 -6 -525 -26 -19 -11 -45 -35 -57 -54 -23 -33 -23
-33 -23 -463 0 -237 -2 -428 -5 -425 -3 2 -16 83 -30 179 -50 343 -76 492 -91
521 -13 25 -14 45 -5 123 17 160 84 247 225 291 31 9 161 13 524 13 l483 1 -3
-77z m3199 56 c78 -26 144 -83 179 -154 l26 -55 -1 -1102 c-1 -606 -4 -1104
-6 -1106 -2 -2 -26 18 -54 45 l-51 49 0 1028 0 1028 -22 40 c-12 21 -38 49
-58 61 -34 22 -44 22 -470 27 l-435 5 -3 78 -3 77 419 0 c397 0 421 -1 479
-21z m-4957 -4 c11 -13 26 -106 43 -271 l6 -52 -37 -5 c-20 -4 -37 -5 -39 -3
-5 4 -53 267 -53 287 0 22 34 59 54 59 7 0 19 -7 26 -15z m5850 0 c-7 -8 -16
-15 -21 -15 -5 0 -6 7 -3 15 4 8 13 15 21 15 13 0 13 -3 3 -15z m-1550 -380
c132 -66 242 -155 316 -256 40 -55 90 -168 98 -224 6 -35 3 -32 -17 22 -34 88
-137 220 -160 206 -6 -3 -7 -1 -3 5 10 17 -162 143 -188 137 -12 -3 -15 -2 -8
1 14 7 -57 55 -123 85 -87 39 -146 59 -139 48 4 -8 3 -9 -4 -5 -7 4 -12 22
-12 41 l0 34 83 -28 c45 -16 116 -45 157 -66z m-2540 5 l0 -80 1078 0 c877 0
1087 -3 1128 -14 192 -51 372 -228 413 -406 6 -25 11 -86 11 -136 0 -156 -42
-257 -156 -375 -41 -41 -74 -84 -74 -94 0 -9 16 -40 35 -67 l35 -49 0 -981 c0
-540 -2 -983 -3 -985 -6 -6 -2990 -3 -2996 3 -5 4 -6 834 -2 1861 l1 153 54
-27 c64 -31 69 -29 110 46 l27 50 -57 27 c-80 38 -184 139 -227 222 -53 101
-71 172 -71 282 1 295 219 541 558 630 39 11 86 19 104 19 l32 1 0 -80z m2397
-16 c-3 -3 -12 -4 -19 -1 -8 3 -5 6 6 6 11 1 17 -2 13 -5z m-3789 -50 c13 -9
27 -26 32 -39 5 -13 31 -157 59 -322 28 -164 73 -417 100 -563 27 -146 61
-333 76 -417 39 -213 45 -206 -240 -265 -324 -68 -342 -69 -385 -30 -29 26
-31 34 -60 227 -92 607 -112 740 -145 945 -59 370 -59 361 8 390 36 16 174 46
362 79 85 15 168 13 193 -5z m3932 -24 c20 -16 21 -19 5 -13 l-20 6 20 -23 20
-24 -29 23 c-17 12 -31 29 -32 37 -3 19 6 17 36 -6z m75 -90 c10 -11 16 -20
13 -20 -3 0 -13 9 -23 20 -10 11 -16 20 -13 20 3 0 13 -9 23 -20z m-4755 -87
c0 -19 49 -341 55 -366 l7 -28 -33 19 c-59 32 -65 32 -106 2 -35 -27 -45 -29
-121 -30 -75 0 -83 2 -78 18 3 9 14 53 25 97 22 89 78 271 86 286 7 11 165 12
165 2z m5872 -11 c-1 -8 2 -11 8 -7 24 15 99 18 431 22 378 4 356 7 378 -57
12 -35 101 -339 101 -346 0 -2 -243 -4 -540 -4 l-540 0 0 205 0 206 83 -3 c62
-2 81 -6 79 -16z m-5768 -654 c9 -68 19 -140 22 -160 l7 -38 -251 0 c-233 0
-250 1 -247 18 2 9 14 81 26 160 l23 142 202 0 201 0 17 -122z m6737 22 c32
-192 34 -172 -12 -198 -36 -21 -54 -24 -147 -24 -59 0 -282 -2 -496 -4 l-389
-5 -23 22 c-21 19 -24 20 -30 5 -3 -9 -12 -16 -20 -16 -10 0 -14 30 -16 133
-2 72 -2 144 0 160 l3 27 557 -2 557 -3 16 -95z m-6665 -525 c13 -88 26 -179
29 -202 5 -33 3 -43 -7 -43 -8 0 -29 -16 -48 -35 l-34 -35 -246 0 -247 0 -7
215 c-3 118 -4 226 0 240 l6 25 266 -2 265 -3 23 -160z m5900 151 c8 -9 14
-34 14 -64 l0 -49 -127 -7 c-71 -3 -141 -9 -158 -11 -40 -7 -78 -36 -86 -66
-4 -13 -7 29 -8 94 l-1 117 176 0 c139 0 178 -3 190 -14z m779 6 l40 -7 3
-112 3 -113 -46 -21 c-33 -16 -57 -38 -84 -78 -21 -31 -47 -63 -57 -72 -26
-22 -128 -59 -164 -59 l-30 0 0 139 c0 169 -3 175 -100 191 -36 5 -104 10
-152 10 l-88 0 0 58 c0 32 3 62 7 65 9 9 617 8 668 -1z m-494 -337 c-2 -45 -8
-83 -15 -87 -6 -4 -36 -12 -66 -18 -30 -6 -71 -16 -90 -23 -33 -12 -36 -17
-43 -67 -4 -30 -9 -204 -11 -386 -2 -181 -7 -344 -11 -362 -6 -28 -13 -34 -58
-47 -53 -16 -105 -19 -154 -9 -28 6 -32 12 -54 92 -23 85 -24 99 -27 534 l-2
447 42 4 c24 2 144 3 268 3 l225 -1 -4 -80z m-5321 -253 c0 -64 -3 -82 -19
-96 -18 -16 -19 -14 -31 63 -7 45 -12 84 -12 88 1 7 30 19 55 22 4 1 7 -34 7
-77z m-236 -19 c-5 -70 28 -216 57 -256 11 -15 25 -56 31 -90 6 -34 14 -66 19
-71 5 -6 9 -14 9 -19 0 -5 -14 5 -32 22 -17 17 -53 38 -79 46 -26 9 -50 22
-53 30 -12 33 -56 369 -49 376 4 4 22 9 38 12 66 9 63 12 59 -50z m-228 -6 c2
-2 7 -39 11 -82 l6 -78 -231 5 c-199 4 -234 7 -250 21 -24 22 -41 21 -72 0
-21 -15 -54 -19 -222 -22 l-198 -3 0 33 c0 19 -3 58 -7 88 l-6 54 483 -6 c265
-3 484 -8 486 -10z m4587 -38 c167 -84 359 -247 407 -344 18 -36 26 -71 28
-127 7 -134 -49 -216 -186 -272 -99 -41 -251 -20 -289 40 -13 20 -11 21 39 23
152 6 288 91 288 180 0 116 -120 265 -292 363 -40 23 -75 43 -77 45 -6 4 -1
105 5 115 7 11 8 11 77 -23z m544 -176 c-2 -37 -3 -9 -3 62 0 72 1 102 3 68 2
-34 2 -93 0 -130z m-4273 65 c-3 -46 -8 -86 -10 -89 -2 -4 -17 -9 -34 -12 -43
-9 -135 -54 -170 -84 -17 -13 -35 -21 -41 -17 -8 4 -9 3 -5 -4 4 -7 -5 -24
-19 -39 -15 -16 -33 -40 -41 -55 -21 -40 -27 -34 -7 7 9 19 21 35 25 35 5 0 6
5 3 11 -4 6 -16 -2 -30 -20 l-22 -31 -17 82 c-9 46 -16 86 -16 91 0 12 121 97
185 130 84 42 167 76 188 77 17 0 18 -7 11 -82z m5466 -217 l0 -229 -187 -4
c-104 -2 -195 -3 -203 -1 -41 10 -71 370 -36 419 13 17 31 19 204 24 105 3
194 8 198 13 4 4 11 7 16 7 4 0 8 -103 8 -229z m-6706 -84 c1 -77 -2 -141 -5
-143 -4 -2 -131 -4 -284 -4 -220 -1 -280 1 -286 12 -5 7 -9 73 -8 146 l1 132
290 -2 291 -3 1 -138z m429 129 c3 -8 -14 -29 -40 -51 -55 -46 -73 -86 -73
-165 l0 -61 -102 3 -103 3 -7 118 c-5 82 -12 126 -23 143 l-15 24 179 0 c142
0 180 -3 184 -14z m176 -182 c63 -53 26 -134 -61 -134 -73 0 -114 78 -72 138
23 33 92 31 133 -4z m157 -115 c-4 -26 -2 -46 5 -55 18 -22 6 -25 -20 -5 l-24
18 19 41 c10 23 21 42 23 42 2 0 1 -19 -3 -41z m242 -73 c18 -9 71 -22 119
-28 l86 -11 -30 -28 c-40 -35 -125 -55 -179 -42 -43 10 -56 33 -67 121 l-5 44
21 -20 c12 -11 37 -27 55 -36z m-652 -52 c-23 -59 -12 -126 31 -182 18 -25 89
-80 110 -87 3 -1 43 -246 43 -266 0 -19 -6 -20 -147 -15 -212 8 -217 8 -340 0
-103 -6 -115 -4 -146 15 -43 26 -62 26 -87 1 -19 -19 -33 -20 -210 -20 l-190
0 0 258 c0 141 3 267 6 279 3 12 13 24 23 26 9 3 218 5 465 6 406 1 448 0 442
-15z m269 2 c57 -24 72 -81 33 -123 -61 -65 -201 21 -153 94 27 41 67 51 120
29z m6069 -2 c14 -13 16 -53 16 -285 l0 -269 -330 3 c-181 2 -332 5 -334 8 -2
2 -5 32 -7 67 l-4 63 65 26 c137 55 170 105 177 271 2 59 6 113 8 120 3 9 52
12 199 12 164 0 197 -3 210 -16z m-1146 -225 c6 -14 23 -36 39 -48 86 -67 106
-79 140 -86 62 -11 73 -28 73 -110 0 -57 -3 -74 -16 -79 -9 -3 -72 -6 -140 -6
l-124 0 1 248 c1 175 4 227 9 177 5 -38 13 -82 18 -96z m-198 -104 l0 -225
-55 0 -55 0 0 193 c0 105 4 197 8 202 7 10 81 52 95 54 4 1 7 -100 7 -224z
m583 178 c-7 -2 -19 -2 -25 0 -7 3 -2 5 12 5 14 0 19 -2 13 -5z m-5173 -113
c36 -19 43 -48 21 -77 -23 -28 -26 -54 -11 -84 12 -21 59 -26 78 -7 21 21 23
2 2 -25 -37 -47 -120 -46 -144 2 -11 22 -23 67 -41 157 -7 34 54 56 95 34z
m5145 -131 c4 -22 4 -65 0 -95 -6 -54 -7 -54 -41 -54 -20 0 -35 5 -35 13 -3
25 3 162 8 170 2 4 17 7 33 7 25 0 29 -4 35 -41z m929 -300 c39 -11 79 -34
124 -74 41 -35 62 -90 68 -178 6 -81 6 -82 -12 -57 -10 14 -23 28 -28 32 -18
12 -74 9 -79 -4 -3 -10 -7 -10 -20 1 -15 12 -17 11 -17 -3 0 -29 -15 -16 -40
36 -17 35 -36 57 -60 70 -34 18 -147 18 -3755 16 l-3720 -3 -31 -22 c-65 -46
-63 -25 -63 -830 0 -435 4 -742 9 -764 6 -20 21 -48 35 -63 23 -24 23 -27 5
-21 -24 8 -24 5 -5 -41 l14 -34 -51 5 c-55 5 -80 22 -106 70 -15 27 -16 113
-13 860 3 891 2 868 54 923 35 38 88 66 147 78 76 17 7485 19 7544 3z m23
-851 c-1 -101 -2 -19 -2 182 0 201 1 283 2 183 2 -101 2 -265 0 -365z m-6789
446 c195 -40 353 -169 339 -275 -8 -60 -50 -117 -105 -141 -58 -26 -145 -20
-224 16 -136 62 -236 53 -328 -30 -69 -63 -93 -122 -98 -241 -4 -91 -2 -107
20 -155 56 -121 114 -156 258 -158 160 -2 150 -4 150 30 0 29 -1 30 -47 30
-65 0 -109 28 -135 87 -35 80 -10 158 63 195 29 15 63 18 219 18 207 0 230 -6
270 -72 19 -31 20 -51 20 -287 0 -374 21 -355 -398 -359 -325 -3 -359 1 -481
61 -86 41 -214 167 -259 254 -49 94 -73 199 -73 328 0 141 22 247 73 355 80
167 259 306 443 344 94 19 199 19 293 0z m875 -27 c64 -27 62 -12 67 -441 5
-372 6 -393 26 -426 73 -125 254 -96 294 48 6 22 10 181 10 399 l0 362 23 26
c27 31 80 44 182 44 91 0 134 -16 162 -58 l23 -34 0 -401 c0 -441 -3 -467 -61
-576 -50 -94 -151 -186 -257 -232 -106 -48 -262 -61 -381 -33 -193 46 -355
198 -402 376 -13 50 -25 749 -14 835 8 65 36 102 85 114 58 13 207 11 243 -3z
m1781 -12 c43 -28 56 -71 56 -177 0 -101 -10 -130 -53 -162 -21 -15 -41 -20
-85 -19 -31 1 -76 -1 -99 -3 l-43 -5 0 -425 c0 -468 0 -468 -61 -500 -25 -12
-56 -15 -155 -12 l-124 3 -32 33 -33 32 -3 430 c-3 496 9 450 -116 448 -83 -2
-118 14 -143 63 -18 35 -17 212 1 248 17 32 51 57 87 64 13 3 193 4 399 3 354
-1 377 -2 404 -21z m371 13 c23 -10 97 -102 296 -367 35 -47 69 -86 75 -88 6
-2 78 88 162 199 190 256 195 260 272 266 69 5 111 -9 140 -46 19 -24 20 -43
20 -618 l0 -594 -29 -32 -29 -33 -124 -3 c-138 -3 -159 3 -195 57 -22 32 -23
43 -23 218 0 122 -3 182 -10 178 -6 -4 -33 -39 -60 -80 -106 -158 -151 -154
-270 24 -37 55 -44 62 -50 45 -4 -10 -8 -98 -9 -194 -2 -244 -9 -252 -208
-248 l-123 3 -32 33 -33 32 -2 588 c-2 454 0 592 10 611 27 53 153 81 222 49z
m1948 -11 c43 -28 55 -55 101 -228 24 -90 71 -261 104 -379 173 -617 173 -614
128 -667 -23 -27 -28 -28 -131 -31 -59 -2 -122 -1 -141 3 -42 7 -81 48 -95 98
l-10 37 -213 0 -214 0 -28 -57 c-17 -33 -40 -63 -54 -70 -32 -16 -225 -17
-269 -2 -37 13 -61 53 -61 102 0 19 23 113 50 208 41 141 219 765 260 910 11
41 45 76 86 89 16 5 126 8 244 7 187 -2 220 -4 243 -20z m676 8 c16 -8 44 -32
62 -53 108 -124 462 -502 470 -502 7 0 9 92 8 249 -4 328 -11 316 203 316 132
0 163 -12 185 -76 15 -42 18 -1092 3 -1154 -5 -24 -21 -51 -40 -67 -27 -25
-38 -28 -99 -28 -89 0 -94 4 -360 278 -118 122 -218 219 -223 216 -4 -3 -8
-99 -8 -214 l0 -210 -29 -32 -29 -33 -124 -3 c-140 -4 -170 4 -198 50 -19 32
-20 51 -20 610 0 350 4 587 10 602 21 57 125 85 189 51z m1158 -497 c-2 -13
-4 -3 -4 22 0 25 2 35 4 23 2 -13 2 -33 0 -45z m-20 -420 c-1 -46 -3 -9 -3 82
0 91 2 128 3 83 2 -46 2 -120 0 -165z m0 -380 c-2 -13 -4 -3 -4 22 0 25 2 35
4 23 2 -13 2 -33 0 -45z m-57 -138 c-8 -5 -19 -10 -25 -10 -5 0 -3 5 5 10 8 5
20 10 25 10 6 0 3 -5 -5 -10z"/>
<path d="M5846 8248 c-14 -13 -40 -50 -57 -83 -139 -261 -341 -394 -624 -412
-154 -10 -354 46 -502 139 -73 46 -115 48 -145 7 -18 -24 -18 -29 -5 -61 26
-62 191 -154 357 -200 74 -20 108 -23 260 -23 164 0 181 2 265 28 214 68 365
183 476 363 94 154 107 219 49 249 -38 20 -44 19 -74 -7z"/>
<path d="M3170 8281 c0 -21 13 -41 26 -41 8 0 14 7 14 16 0 8 -4 12 -10 9 -5
-3 -10 1 -10 9 0 9 -4 16 -10 16 -5 0 -10 -4 -10 -9z"/>
<path d="M3168 8074 c-17 -36 0 -59 43 -59 30 0 34 3 37 28 7 57 -57 81 -80
31z"/>
<path d="M2930 8020 c0 -26 38 -47 46 -25 9 23 -3 45 -26 45 -13 0 -20 -7 -20
-20z"/>
<path d="M7110 8166 c0 -9 5 -16 10 -16 6 0 10 4 10 9 0 6 -4 13 -10 16 -5 3
-10 -1 -10 -9z"/>
<path d="M7182 8058 c-7 -7 -12 -19 -12 -27 1 -21 47 -54 66 -47 22 8 17 53
-8 70 -27 19 -31 19 -46 4z"/>
<path d="M7405 8030 c-14 -22 6 -50 36 -50 33 0 38 19 11 43 -21 19 -38 22
-47 7z"/>
<path d="M2892 7711 c-8 -4 -12 -19 -10 -32 2 -19 10 -25 36 -27 32 -3 33 -2
30 30 -3 34 -28 48 -56 29z"/>
<path d="M3600 7441 c0 -15 30 -41 46 -41 19 0 18 36 -2 44 -23 9 -44 7 -44
-3z"/>
<path d="M3530 7356 c0 -25 28 -40 50 -26 18 11 -6 50 -30 50 -14 0 -20 -7
-20 -24z"/>
<path d="M7086 7573 c-11 -11 -6 -23 9 -23 8 0 15 4 15 9 0 13 -16 22 -24 14z"/>
<path d="M7330 7546 c-32 -39 23 -100 65 -72 27 18 32 56 9 73 -24 17 -59 17
-74 -1z"/>
<path d="M7760 7510 c-13 -9 -13 -11 0 -20 18 -11 39 5 24 20 -6 6 -15 6 -24
0z"/>
<path d="M6681 7441 c-22 -22 -18 -57 7 -63 57 -14 94 35 50 66 -29 20 -34 20
-57 -3z"/>
<path d="M6320 7420 c0 -5 9 -10 20 -10 11 0 20 5 20 10 0 6 -9 10 -20 10 -11
0 -20 -4 -20 -10z"/>
<path d="M1910 6821 c0 -27 19 -36 37 -18 18 18 9 37 -18 37 -12 0 -19 -7 -19
-19z"/>
<path d="M7637 6854 c-12 -12 -8 -51 7 -64 8 -6 25 -10 38 -8 19 2 23 9 23 38
0 32 -3 35 -30 38 -17 2 -34 0 -38 -4z"/>
<path d="M7860 6810 c0 -5 7 -10 15 -10 8 0 15 5 15 10 0 6 -7 10 -15 10 -8 0
-15 -4 -15 -10z"/>
<path d="M7906 6732 c-3 -6 3 -12 15 -15 12 -3 19 -1 16 6 -5 15 -24 20 -31 9z"/>
<path d="M7812 6708 c6 -18 28 -21 28 -4 0 9 -7 16 -16 16 -9 0 -14 -5 -12
-12z"/>
<path d="M8262 6828 c-7 -7 -12 -24 -12 -38 0 -43 41 -65 78 -41 18 11 19 71
1 82 -20 12 -53 11 -67 -3z"/>
<path d="M5191 6473 c-33 -41 -11 -93 40 -93 59 0 78 84 24 108 -36 17 -41 16
-64 -15z"/>
<path d="M6112 6468 c-21 -21 -15 -75 10 -92 30 -21 44 -20 68 4 25 25 26 62
2 83 -22 20 -63 22 -80 5z"/>
<path d="M3887 6452 c-21 -23 -21 -41 -1 -70 30 -43 104 -16 104 39 0 43 -73
65 -103 31z"/>
<path d="M4357 6420 c-117 -30 -227 -131 -227 -211 0 -28 36 -59 70 -59 22 0
42 13 82 53 104 103 242 105 356 6 61 -54 128 -25 123 54 -2 31 -88 113 -144
137 -59 26 -196 36 -260 20z"/>
<path d="M5595 6420 c-106 -19 -225 -111 -225 -174 0 -72 66 -78 158 -15 52
36 71 43 121 47 88 6 150 -18 203 -78 52 -59 83 -70 121 -40 35 28 35 64 -2
122 -70 110 -220 165 -376 138z"/>
<path d="M5010 6160 c-11 -11 -20 -29 -20 -40 0 -26 34 -60 60 -60 26 0 60 34
60 60 0 24 -37 60 -62 60 -10 0 -27 -9 -38 -20z"/>
<path d="M3700 5950 c-11 -11 -20 -29 -20 -39 0 -21 44 -61 66 -61 15 0 54 47
54 66 0 21 -37 54 -60 54 -11 0 -29 -9 -40 -20z"/>
<path d="M6232 5934 c-44 -30 -16 -104 39 -104 17 0 59 44 59 62 0 14 -47 58
-62 58 -8 0 -24 -7 -36 -16z"/>
<path d="M4462 5903 c-114 -56 -119 -226 -10 -293 41 -25 117 -26 165 -3 77
36 110 143 69 226 -37 75 -145 109 -224 70z"/>
<path d="M5487 5895 c-47 -33 -70 -77 -71 -140 0 -61 25 -109 75 -143 46 -32
138 -28 188 7 39 28 71 91 71 141 0 45 -36 108 -79 137 -49 33 -133 32 -184
-2z"/>
<path d="M4915 5644 c-18 -13 -20 -29 -23 -140 l-4 -126 -33 6 c-47 9 -160
-11 -220 -38 -27 -13 -92 -50 -143 -84 -98 -65 -150 -80 -219 -67 -35 7 -36 8
-15 16 56 21 51 92 -10 129 -95 58 -247 -14 -279 -132 -79 -293 348 -562 766
-483 102 19 231 75 286 123 20 18 39 32 41 32 2 0 42 -25 88 -55 50 -33 117
-66 165 -82 71 -23 95 -26 225 -26 117 0 160 4 225 21 170 46 297 135 359 251
22 42 30 72 34 128 5 79 -5 116 -46 172 -73 98 -261 90 -270 -11 -2 -28 2 -40
22 -56 l26 -20 -45 -6 c-65 -10 -110 6 -230 84 -121 78 -187 102 -286 104
l-67 1 -4 116 c-2 98 -6 120 -22 138 -24 27 -70 27 -96 1 -18 -18 -20 -33 -20
-155 l0 -135 -45 0 -45 0 0 133 c0 120 -2 135 -20 155 -24 25 -66 28 -95 6z
m14 -426 c28 -6 51 -16 51 -22 0 -21 -147 -152 -205 -183 -33 -17 -92 -40
-131 -51 -89 -25 -230 -40 -220 -23 4 6 13 11 20 11 8 0 20 8 27 17 12 15 12
16 -6 9 -33 -13 -125 -6 -187 15 -31 10 -65 20 -75 20 -10 1 28 5 83 9 115 8
175 31 278 104 78 55 113 73 178 90 66 18 122 19 187 4z m517 -22 c28 -13 87
-48 130 -77 100 -67 160 -90 259 -98 l80 -6 -54 -19 c-56 -19 -138 -25 -206
-13 l-40 6 40 -19 c47 -22 81 -25 89 -7 5 10 7 10 12 0 7 -15 34 -17 34 -3 0
6 10 10 22 10 22 0 22 0 -2 -17 -20 -14 -46 -17 -130 -17 -150 1 -273 39 -382
119 -54 40 -108 95 -92 95 4 0 -5 10 -20 21 -32 25 -26 35 29 48 61 15 171 4
231 -23z m-1069 -252 c-3 -3 -12 -4 -19 -1 -8 3 -5 6 6 6 11 1 17 -2 13 -5z"/>
<path d="M4568 5013 c7 -3 16 -2 19 1 4 3 -2 6 -13 5 -11 0 -14 -3 -6 -6z"/>
<path d="M5225 5140 c3 -5 8 -10 11 -10 2 0 4 5 4 10 0 6 -5 10 -11 10 -5 0
-7 -4 -4 -10z"/>
<path d="M4660 4637 c-33 -16 -40 -79 -13 -109 21 -24 102 -76 154 -101 99
-46 280 -60 411 -32 127 26 260 107 273 165 4 18 -1 34 -15 53 -30 38 -69 36
-126 -8 -68 -52 -168 -80 -284 -79 -116 1 -200 23 -279 74 -73 47 -90 53 -121
37z"/>
<path d="M5772 4368 c-18 -18 -14 -63 6 -81 38 -34 92 -8 92 44 0 33 -18 49
-55 49 -17 0 -36 -5 -43 -12z"/>
<path d="M6306 4299 c-19 -28 -20 -40 -4 -74 9 -19 19 -25 43 -25 39 0 58 20
58 61 0 36 -9 47 -50 55 -25 5 -34 2 -47 -17z"/>
<path d="M4112 4298 c-7 -7 -12 -26 -12 -43 0 -38 16 -55 50 -55 31 0 60 28
60 57 0 42 -68 71 -98 41z"/>
<path d="M4567 4032 c-10 -10 -17 -28 -17 -40 0 -55 81 -71 109 -21 13 24 13
29 -2 53 -21 31 -66 35 -90 8z"/>
<path d="M5470 3933 c-40 -14 -53 -69 -22 -96 27 -24 58 -21 81 9 27 34 26 40
-4 69 -25 26 -29 27 -55 18z"/>
<path d="M3894 3905 c-14 -21 -15 -31 -5 -51 26 -59 110 -42 111 22 0 52 -77
73 -106 29z"/>
<path d="M8510 6230 c0 -5 5 -10 10 -10 6 0 10 5 10 10 0 6 -4 10 -10 10 -5 0
-10 -4 -10 -10z"/>
<path d="M8352 6198 c2 -15 11 -24 26 -26 20 -3 23 0 20 20 -2 15 -11 24 -26
26 -20 3 -23 0 -20 -20z"/>
<path d="M7930 6195 c-17 -20 -3 -35 31 -35 23 0 30 4 27 16 -4 24 -44 36 -58
19z"/>
<path d="M8100 5715 c0 -8 5 -15 10 -15 6 0 10 7 10 15 0 8 -4 15 -10 15 -5 0
-10 -7 -10 -15z"/>
<path d="M1550 5380 c-8 -5 -12 -12 -9 -15 4 -3 12 1 19 10 14 17 11 19 -10 5z"/>
<path d="M1682 5367 c2 -14 10 -22 23 -22 27 0 25 26 -3 36 -20 8 -23 6 -20
-14z"/>
<path d="M1724 5166 c-7 -19 3 -36 22 -36 10 0 14 8 12 22 -4 26 -26 36 -34
14z"/>
<path d="M8634 5315 c-8 -19 3 -35 26 -35 19 0 34 25 24 41 -8 14 -44 10 -50
-6z"/>
<path d="M8510 4530 c-24 -44 17 -88 61 -67 27 14 37 51 19 73 -19 21 -67 18
-80 -6z"/>
<path d="M1744 4415 c-8 -21 4 -35 32 -35 17 0 24 6 24 19 0 29 -46 43 -56 16z"/>
<path d="M2370 3783 c0 -21 28 -46 44 -40 27 10 15 42 -17 45 -15 2 -27 -1
-27 -5z"/>
<path d="M8502 3914 c-13 -23 -4 -51 19 -57 18 -5 49 15 49 31 -1 30 -54 51
-68 26z"/>
<path d="M8610 3740 c-16 -30 4 -60 40 -60 23 0 31 5 36 25 4 15 1 32 -6 40
-18 21 -57 19 -70 -5z"/>
<path d="M8382 3688 c-21 -21 -15 -65 11 -72 38 -10 47 -7 59 19 9 21 8 28 -7
45 -20 23 -45 26 -63 8z"/>
<path d="M7663 3673 c9 -2 25 -2 35 0 9 3 1 5 -18 5 -19 0 -27 -2 -17 -5z"/>
<path d="M1338 3323 c7 -3 16 -2 19 1 4 3 -2 6 -13 5 -11 0 -14 -3 -6 -6z"/>
<path d="M2518 3323 c23 -2 61 -2 85 0 23 2 4 4 -43 4 -47 0 -66 -2 -42 -4z"/>
<path d="M4244 3323 c2 -3 166 -5 363 -6 197 0 338 -3 313 -6 l-45 -7 47 -4
c25 -3 44 -2 41 3 -5 9 -13 8 217 16 126 5 5 7 -378 8 -310 1 -561 -1 -558 -4z"/>
<path d="M5618 3323 c12 -2 32 -2 45 0 12 2 2 4 -23 4 -25 0 -35 -2 -22 -4z"/>
<path d="M7778 3323 c12 -2 32 -2 45 0 12 2 2 4 -23 4 -25 0 -35 -2 -22 -4z"/>
<path d="M8098 3323 c12 -2 32 -2 45 0 12 2 2 4 -23 4 -25 0 -35 -2 -22 -4z"/>
<path d="M6837 2483 c-12 -19 -87 -284 -87 -306 0 -31 15 -37 95 -37 113 0
114 2 54 199 -40 134 -52 161 -62 144z"/>
</g>
</svg>
